<svg width="163" height="33" viewBox="0 0 163 33" fill="none" xmlns="http://www.w3.org/2000/svg">
<g clip-path="url(#clip0_232_14513)">
<path d="M58.9912 30.9402V26.4297H60.042V30.9402H58.9941H58.9912ZM58.9912 25.5782V24.5771H60.042V25.5782H58.9941H58.9912Z" fill="#7D878C"/>
<path d="M25.2529 24.5771H26.3583V27.2351H28.8991V24.5771H30.0045V30.9402H28.8991V28.2276H26.3583V30.9402H25.2529V24.5771Z" fill="#0290BF"/>
<path d="M33.6578 27.7961C33.5372 27.4308 33.1985 27.215 32.7764 27.215C32.3544 27.215 32.007 27.4308 31.8864 27.7961C31.8491 27.9083 31.829 28.0205 31.829 28.1787C31.829 28.2103 31.8548 28.2362 31.8864 28.2362H33.6578C33.6894 28.2362 33.7152 28.2103 33.7152 28.1787C33.7152 28.0205 33.6952 27.9083 33.6578 27.7961ZM30.9332 29.7896C30.8385 29.4991 30.7725 29.1539 30.7725 28.685C30.7725 28.2161 30.8299 27.8623 30.9218 27.5717C31.1744 26.7864 31.8692 26.3262 32.7678 26.3262C33.6664 26.3262 34.3698 26.8037 34.6225 27.5717C34.7258 27.891 34.7718 28.1988 34.7718 28.9295C34.7718 28.987 34.7345 29.0244 34.6684 29.0244H31.8864C31.8548 29.0244 31.829 29.0503 31.829 29.0791C31.829 29.2114 31.8577 29.3236 31.895 29.4272C32.0443 29.8673 32.4003 30.1118 32.9085 30.1118C33.4167 30.1118 33.7411 29.9248 33.9679 29.6803C34.0138 29.6343 34.0626 29.6256 34.1086 29.6602L34.6598 30.1463C34.7057 30.1837 34.7057 30.2297 34.6684 30.2786C34.2837 30.7274 33.6463 31.0467 32.8138 31.0467C31.8577 31.0467 31.183 30.5778 30.9304 29.7925" fill="#0290BF"/>
<path d="M38.0974 29.4252V29.08C38.0974 29.0484 38.0715 29.0253 38.0428 29.0253H37.2935C36.6188 29.0253 36.3202 29.2123 36.3202 29.6323C36.3202 30.0063 36.593 30.1932 37.0983 30.1932C37.7442 30.1932 38.1003 29.9401 38.1003 29.4252M38.2094 30.9412C38.1577 30.9412 38.1146 30.9009 38.1146 30.8462V30.5183H38.106C37.8907 30.8261 37.4686 31.0418 36.8313 31.0418C36.0073 31.0418 35.3125 30.6104 35.3125 29.6668C35.3125 28.7233 36.0044 28.2343 37.1212 28.2343H38.04C38.0715 28.2343 38.0945 28.2084 38.0945 28.1767V27.961C38.0945 27.4461 37.8505 27.2131 37.0925 27.2131C36.5872 27.2131 36.2772 27.354 36.0618 27.5209C36.0159 27.5583 35.9585 27.5497 35.9298 27.5036L35.5824 26.8852C35.5537 26.8391 35.5651 26.7902 35.6025 26.7643C35.9671 26.5026 36.4638 26.3242 37.2045 26.3242C38.5826 26.3242 39.0879 26.7931 39.0879 27.8977V30.9383H38.2065L38.2094 30.9412Z" fill="#0290BF"/>
<path d="M41.2647 30.9977C40.3833 30.9977 40.0273 30.5777 40.0273 29.7061V24.5771H41.0781V29.6486C41.0781 29.9564 41.1987 30.06 41.4715 30.06H41.6782C41.7299 30.06 41.7729 30.1031 41.7729 30.152V30.9948H41.2676L41.2647 30.9977Z" fill="#0290BF"/>
<path d="M43.7659 30.9986C42.8587 30.9986 42.5113 30.5584 42.5113 29.6782V27.3021C42.5113 27.2705 42.4855 27.2475 42.4539 27.2475H42.1553C42.1036 27.2475 42.0605 27.2043 42.0605 27.1525V26.5254C42.0605 26.4737 42.1036 26.4305 42.1553 26.4305H42.4539C42.4855 26.4305 42.5113 26.4046 42.5113 26.3759V25.0469H43.5621V26.4305H44.3114V27.2446H43.5621V29.6408C43.5621 29.9601 43.6942 30.0608 43.9841 30.0608H44.2195C44.2712 30.0608 44.3143 30.1039 44.3143 30.1528V30.9957H43.7717L43.7659 30.9986Z" fill="#0290BF"/>
<path d="M47.885 30.9402V28.2448C47.885 27.6637 47.595 27.261 47.0323 27.261C46.4696 27.261 46.171 27.6637 46.171 28.2448V30.9402H45.123V24.5771H46.171V26.8525H46.1796C46.3892 26.5534 46.8198 26.2974 47.483 26.3319C48.3013 26.3721 48.9329 27.0769 48.9329 27.8967V30.9431H47.885V30.9402Z" fill="#0290BF"/>
<path d="M49.3818 30.2019C49.3445 30.1645 49.3244 30.107 49.3617 30.061L49.9416 29.3878C49.9789 29.3418 50.0364 29.3418 50.0737 29.3792C50.4871 29.7071 51.0958 30.0523 51.8078 30.0523C52.5657 30.0523 53.0079 29.6698 53.0079 29.1347C53.0079 28.6773 52.7265 28.3753 51.8451 28.2545L51.5092 28.2084C50.2833 28.0387 49.5885 27.449 49.5885 26.3933C49.5885 25.2427 50.4326 24.4746 51.7446 24.4746C52.5399 24.4746 53.3007 24.7278 53.806 25.1103C53.8519 25.1477 53.8634 25.1851 53.8261 25.2398L53.3754 25.933C53.338 25.9791 53.2921 25.9877 53.2433 25.9618C52.7265 25.6253 52.2499 25.467 51.7159 25.467C51.0699 25.467 50.7139 25.8237 50.7139 26.3185C50.7139 26.7586 51.024 27.0578 51.8853 27.1786L52.2241 27.2246C53.45 27.3944 54.1247 27.9726 54.1247 29.0685C54.1247 30.1645 53.3093 31.0419 51.7274 31.0419C50.7914 31.0419 49.8813 30.6679 49.3846 30.1991" fill="#7D878C"/>
<path d="M54.8135 29.7982C54.7188 29.5163 54.6729 29.1625 54.6729 28.685C54.6729 28.2075 54.7188 27.8508 54.8135 27.5717C55.0748 26.7663 55.7696 26.3262 56.6768 26.3262C57.3515 26.3262 57.8855 26.5966 58.2415 27.0281C58.2702 27.0655 58.2788 27.123 58.2329 27.1604L57.6415 27.6753C57.5955 27.7127 57.5467 27.7041 57.5094 27.658C57.2855 27.4049 57.0501 27.2639 56.6768 27.2639C56.2749 27.2639 55.9648 27.4596 55.8327 27.8536C55.7581 28.078 55.738 28.3398 55.738 28.6879C55.738 29.2114 55.7811 29.5652 55.9964 29.8443C56.1055 29.9881 56.2777 30.0773 56.4558 30.0974C56.9639 30.1578 57.2424 30.0169 57.5065 29.7177C57.5439 29.6717 57.5898 29.6717 57.6386 29.7091L58.23 30.224C58.276 30.2614 58.2674 30.3074 58.2387 30.3563C57.8826 30.7763 57.3486 31.0496 56.6739 31.0496C55.7638 31.0496 55.0719 30.6094 54.8107 29.804" fill="#7D878C"/>
<path d="M63.6764 27.7961C63.5558 27.4308 63.217 27.215 62.795 27.215C62.3729 27.215 62.0255 27.4308 61.905 27.7961C61.8676 27.9083 61.8475 28.0205 61.8475 28.1787C61.8475 28.2103 61.8734 28.2362 61.905 28.2362H63.6764C63.708 28.2362 63.7338 28.2103 63.7338 28.1787C63.7338 28.0205 63.7166 27.9083 63.6764 27.7961ZM60.9489 29.7896C60.8542 29.4991 60.791 29.1539 60.791 28.685C60.791 28.2161 60.8484 27.8623 60.9403 27.5717C61.193 26.7864 61.8877 26.3262 62.7864 26.3262C63.685 26.3262 64.3884 26.8037 64.641 27.5717C64.7444 27.891 64.7903 28.1988 64.7903 28.9295C64.7903 28.987 64.753 29.0244 64.687 29.0244H61.905C61.8734 29.0244 61.8475 29.0503 61.8475 29.0791C61.8475 29.2114 61.8763 29.3236 61.9136 29.4272C62.0629 29.8673 62.4189 30.1118 62.9242 30.1118C63.4295 30.1118 63.7568 29.9248 63.9836 29.6803C64.0295 29.6343 64.0783 29.6256 64.1243 29.6602L64.6755 30.1463C64.7214 30.1837 64.7214 30.2297 64.6841 30.2786C64.2994 30.7274 63.662 31.0467 62.8294 31.0467C61.8734 31.0467 61.1987 30.5778 60.946 29.7925" fill="#7D878C"/>
<path d="M68.3038 30.9405V28.2452C68.3038 27.6641 68.0139 27.2614 67.4512 27.2614C66.8884 27.2614 66.5899 27.6641 66.5899 28.2452V30.9405H65.5391V26.43H66.4951C66.5468 26.43 66.5899 26.4732 66.5899 26.525V26.8529H66.5985C66.8081 26.5537 67.2387 26.2977 67.9019 26.3322C68.723 26.3725 69.3518 27.0773 69.3518 27.8971V30.9434H68.301L68.3038 30.9405Z" fill="#7D878C"/>
<path d="M70.1963 29.7982C70.1016 29.5163 70.0557 29.1625 70.0557 28.685C70.0557 28.2075 70.1016 27.8508 70.1963 27.5717C70.4605 26.7663 71.1524 26.3262 72.0596 26.3262C72.7343 26.3262 73.2683 26.5966 73.6243 27.0281C73.653 27.0655 73.6617 27.123 73.6157 27.1604L73.0243 27.6753C72.9784 27.7127 72.9295 27.7041 72.8922 27.658C72.6683 27.4049 72.4329 27.2639 72.0596 27.2639C71.6577 27.2639 71.3476 27.4596 71.2156 27.8536C71.1409 28.078 71.1208 28.3398 71.1208 28.6879C71.1208 29.2114 71.1639 29.5652 71.3792 29.8443C71.4912 29.9881 71.6606 30.0773 71.8386 30.0974C72.3467 30.1578 72.6252 30.0169 72.8894 29.7177C72.9267 29.6717 72.9726 29.6717 73.0214 29.7091L73.6128 30.224C73.6588 30.2614 73.6502 30.3074 73.6215 30.3563C73.2655 30.7763 72.7314 31.0496 72.0568 31.0496C71.1466 31.0496 70.4547 30.6094 70.1935 29.804" fill="#7D878C"/>
<path d="M77.0143 27.7961C76.8938 27.4308 76.555 27.215 76.1329 27.215C75.7109 27.215 75.3635 27.4308 75.2429 27.7961C75.2056 27.9083 75.1855 28.0205 75.1855 28.1787C75.1855 28.2103 75.2113 28.2362 75.2429 28.2362H77.0143C77.0459 28.2362 77.0718 28.2103 77.0718 28.1787C77.0718 28.0205 77.0517 27.9083 77.0143 27.7961ZM74.2897 29.7896C74.195 29.4991 74.1318 29.1539 74.1318 28.685C74.1318 28.2161 74.1864 27.8623 74.2811 27.5717C74.5338 26.7864 75.2286 26.3262 76.1272 26.3262C77.0258 26.3262 77.7292 26.8037 77.9819 27.5717C78.0852 27.891 78.1312 28.1988 78.1312 28.9295C78.1312 28.987 78.0938 29.0244 78.0278 29.0244H75.2458C75.2142 29.0244 75.1884 29.0503 75.1884 29.0791C75.1884 29.2114 75.2171 29.3236 75.2544 29.4272C75.4037 29.8673 75.7597 30.1118 76.265 30.1118C76.7703 30.1118 77.1005 29.9248 77.3244 29.6803C77.3703 29.6343 77.4191 29.6256 77.4651 29.6602L78.0163 30.1463C78.0623 30.1837 78.0623 30.2297 78.0249 30.2786C77.6402 30.7274 77.0028 31.0467 76.1703 31.0467C75.2142 31.0467 74.5395 30.5778 74.2869 29.7925" fill="#7D878C"/>
<path d="M20.4531 28.0876C20.5076 27.5727 20.901 27.1873 21.501 27.1873C22.1011 27.1873 22.4944 27.5727 22.5489 28.0876H20.4531ZM21.4981 26.2552C20.0454 26.2552 19.2272 27.3886 19.2272 28.5882C19.2272 29.8654 20.1028 30.9873 21.5068 30.9873C22.2073 30.9873 22.8934 30.7226 23.2868 30.2595C23.459 30.0581 23.5968 29.7791 23.5968 29.6065C23.5968 29.5489 23.5854 29.4972 23.5509 29.4598C23.5165 29.4166 23.4677 29.3936 23.3787 29.3936H22.704C22.569 29.3936 22.4772 29.4425 22.4111 29.5432C22.213 29.8309 21.9288 29.9833 21.5096 29.9833C20.8809 29.9833 20.4732 29.5058 20.4445 28.9823H23.37C23.4992 28.9823 23.5911 28.9535 23.6543 28.8902C23.726 28.824 23.7605 28.7262 23.7605 28.5479C23.7605 27.9985 23.5882 27.4289 23.2294 26.9945C22.8619 26.5544 22.2905 26.2581 21.4981 26.2581M23.3442 25.6138C23.4332 25.6138 23.4992 25.5879 23.5509 25.5476C23.6055 25.4987 23.6313 25.4297 23.6313 25.329V24.9406C23.6313 24.791 23.6026 24.7134 23.5509 24.6616C23.505 24.6127 23.4303 24.5811 23.3442 24.5811C23.2782 24.5811 23.2093 24.5897 23.0973 24.6012L19.7526 24.932C19.6549 24.9406 19.609 24.9694 19.5774 25.0068C19.5401 25.0499 19.5229 25.1017 19.5229 25.1794V25.398C19.5229 25.4814 19.5401 25.5188 19.5688 25.5533C19.6061 25.5965 19.6607 25.6166 19.7353 25.6166H23.3442V25.6138ZM6.86459 28.0876C6.91914 27.5727 7.31247 27.1873 7.91251 27.1873C8.51255 27.1873 8.90588 27.5727 8.96043 28.0876H6.86459ZM17.5792 30.5299C17.5792 30.6392 17.6137 30.7197 17.6625 30.7801C17.7256 30.8549 17.8146 30.901 17.9438 30.901H18.4434C18.5726 30.901 18.6616 30.8549 18.7247 30.7801C18.7764 30.7168 18.808 30.6363 18.808 30.5299V25.0499C18.808 24.9406 18.7735 24.8601 18.7247 24.7997C18.6616 24.7249 18.5726 24.6789 18.4434 24.6789H17.9438C17.8146 24.6789 17.7256 24.7249 17.6625 24.7997C17.6108 24.863 17.5792 24.9406 17.5792 25.0499V30.5299ZM15.0154 26.4135H14.78C14.691 26.4135 14.6249 26.4393 14.5761 26.4796C14.5216 26.5285 14.4957 26.5976 14.4957 26.6982V26.9859C14.4957 27.0866 14.5216 27.1527 14.5761 27.2045C14.6249 27.2477 14.6938 27.2707 14.78 27.2707H15.0154V29.3591C15.0154 29.8941 15.1618 30.2307 15.4346 30.4982C15.6872 30.7456 16.0116 30.901 16.583 30.901H16.939C17.028 30.901 17.094 30.8751 17.1428 30.8348C17.1974 30.7859 17.2318 30.7168 17.2318 30.6162V30.2508C17.2318 30.1502 17.1974 30.084 17.1428 30.0322C17.094 29.9891 17.0251 29.9661 16.939 29.9661H16.8873C16.6605 29.9661 16.5054 29.9085 16.4021 29.8078C16.2758 29.6899 16.2126 29.5116 16.2126 29.2757V27.2707H16.9763C17.0653 27.2707 17.1313 27.2448 17.183 27.2045C17.2376 27.1556 17.2634 27.0866 17.2634 26.9859V26.6982C17.2634 26.5976 17.2376 26.5314 17.183 26.4796C17.1313 26.4365 17.0653 26.4135 16.9763 26.4135H16.2183V25.0499C16.2183 24.9406 16.1839 24.863 16.1351 24.7997C16.0719 24.7249 15.9829 24.6789 15.8537 24.6789H15.38C15.2508 24.6789 15.1618 24.7249 15.0987 24.7997C15.0498 24.863 15.0154 24.9406 15.0154 25.0499V26.4135ZM12.4028 26.2552C11.2544 26.2552 10.4993 26.7989 10.4993 27.6705C10.4993 27.9812 10.6113 28.2315 10.7979 28.4271C11.0103 28.6572 11.3175 28.8154 11.7625 28.9305L12.7215 29.1721C12.9856 29.2383 13.221 29.3188 13.221 29.5489C13.221 29.9056 12.8449 30.0265 12.443 30.0265C12.2449 30.0265 12.041 29.9891 11.8716 29.9056C11.7539 29.8481 11.6534 29.7647 11.5817 29.6496C11.5185 29.5547 11.4984 29.4828 11.4008 29.4281C11.3434 29.3936 11.2716 29.3907 11.174 29.3907H10.6543C10.5424 29.3907 10.4878 29.4253 10.4476 29.4713C10.4103 29.5173 10.3988 29.5835 10.3988 29.6525C10.3988 29.8194 10.4562 30.0293 10.5969 30.2163C10.9156 30.6421 11.5817 30.9873 12.4315 30.9873C13.2813 30.9873 14.4297 30.6392 14.4297 29.5173C14.4297 29.2296 14.3464 28.9823 14.1914 28.7809C13.9933 28.5249 13.7148 28.3494 13.2354 28.2286L12.2851 27.987C11.8917 27.8863 11.708 27.8144 11.708 27.5727C11.708 27.3311 11.9176 27.1499 12.4028 27.1499C12.687 27.1499 12.9483 27.2131 13.1148 27.3886C13.2526 27.5353 13.2268 27.6101 13.3359 27.6677C13.4019 27.7022 13.4794 27.7022 13.5942 27.7022H14.068C14.1426 27.7022 14.1972 27.6907 14.2402 27.6446C14.2747 27.6072 14.2948 27.5497 14.2948 27.4519C14.2948 27.2333 14.1512 26.9543 13.9014 26.7414C13.5655 26.4537 13.0373 26.261 12.3999 26.261M7.90677 26.2552C6.45404 26.2552 5.6358 27.3886 5.6358 28.5882C5.6358 29.8654 6.51146 30.9873 7.91538 30.9873C8.61591 30.9873 9.30208 30.7226 9.69541 30.2595C9.86767 30.0581 10.0055 29.7791 10.0055 29.6065C10.0055 29.5489 9.99399 29.4972 9.95954 29.4598C9.92509 29.4166 9.87628 29.3936 9.78728 29.3936H9.11259C8.97765 29.3936 8.88578 29.4425 8.81975 29.5432C8.62165 29.8309 8.33742 29.9833 7.91825 29.9833C7.2895 29.9833 6.88182 29.5058 6.85311 28.9823H9.77005C9.89925 28.9823 9.99112 28.9535 10.0543 28.8902C10.1261 28.824 10.1605 28.7262 10.1605 28.5479C10.1605 27.9985 9.98825 27.4289 9.62937 26.9945C9.26189 26.5544 8.69917 26.2581 7.90677 26.2581M4.08545 24.8141C4.02803 24.886 3.99358 24.9636 3.99358 25.1017V28.9017H3.97348C3.97348 28.9017 1.892 25.1938 1.79151 25.0212C1.71974 24.9004 1.63935 24.8169 1.53599 24.7537C1.42976 24.6961 1.32067 24.6587 1.11395 24.6587H0.422039C0.264133 24.6587 0.163648 24.7134 0.0918724 24.7968C0.0344521 24.8687 0 24.9464 0 25.0845V30.4723C0 30.6104 0.0344521 30.691 0.0918724 30.76C0.163648 30.8434 0.264133 30.8981 0.422039 30.8981H0.812496C0.970402 30.8981 1.07089 30.8434 1.14266 30.76C1.20008 30.6881 1.23454 30.6104 1.23454 30.4723V26.5774H1.25463C1.25463 26.5774 3.4165 30.4033 3.50551 30.5471C3.62609 30.7485 3.8328 30.8981 4.12564 30.8981H4.79172C4.94963 30.8981 5.05011 30.8434 5.12189 30.76C5.17931 30.6881 5.21376 30.6104 5.21376 30.4723V25.6109H13.9675C14.0565 25.6109 14.1225 25.585 14.1742 25.5447C14.2287 25.4958 14.2546 25.4268 14.2546 25.3261V24.9579C14.2546 24.8572 14.2287 24.791 14.1742 24.7393C14.1254 24.6961 14.0565 24.6731 13.9675 24.6731H4.41562C4.25771 24.6731 4.15723 24.7278 4.08545 24.8112" fill="#232F5D"/>
<path d="M13.0342 13.9692C12.9883 14.0325 12.9165 14.0699 12.839 14.0699H5.98873C5.91122 14.0699 5.83944 14.0325 5.79351 13.9692C5.75044 13.9059 5.73896 13.8254 5.7648 13.7534L9.15833 4.30093C9.19278 4.206 9.27891 4.13984 9.38227 4.14272C9.48276 4.14272 9.57176 4.206 9.60621 4.29805L13.0629 13.7506C13.0887 13.8225 13.0801 13.903 13.0342 13.9692ZM17.7972 17.9648L12.5031 4.89926C12.2533 4.2434 12.0466 3.71986 11.8887 3.33439C11.7422 2.97769 11.5614 2.64113 11.346 2.33333C11.1566 2.06006 10.9039 1.82993 10.591 1.65446C10.2895 1.48474 9.89331 1.39844 9.41385 1.39844C8.93439 1.39844 8.55255 1.48474 8.25109 1.65446C7.94102 1.82993 7.68837 2.06293 7.49889 2.34196C7.28643 2.66127 7.07972 3.06974 6.88736 3.56164L6.35622 4.92228L1.17118 18.0655C0.964463 18.5804 0.81517 18.9802 0.726169 19.2593C0.648651 19.5038 0.611328 19.7397 0.611328 19.9612C0.611328 20.3006 0.749137 20.5911 1.04485 20.873C1.34918 21.1607 1.67073 21.2959 2.05545 21.2959C2.49471 21.2959 2.79043 21.1895 2.95695 20.9708C3.11772 20.7551 3.40482 20.2488 3.8527 19.0493L4.88627 16.2705C4.92072 16.1784 5.00972 16.1151 5.1102 16.1151H13.7347C13.8323 16.1151 13.9213 16.1755 13.9558 16.2676L14.9894 18.986C15.1157 19.288 15.2678 19.6447 15.443 20.0503C15.6038 20.4185 15.753 20.6889 15.8794 20.8471C15.9885 20.9852 16.1234 21.0945 16.2871 21.1751C16.445 21.2527 16.6459 21.293 16.8842 21.293C17.3034 21.293 17.6393 21.1549 17.935 20.8587C18.2279 20.5652 18.3714 20.2632 18.3714 19.9324C18.3714 19.6706 18.2709 19.1183 17.7886 17.9619" fill="#232F5D"/>
<path d="M25.1529 20.7612C25.3367 20.4994 25.5089 20.1772 25.6611 19.8004C25.8219 19.4063 25.9539 19.0812 26.0544 18.8223L29.9475 9.17997C30.0221 8.99586 30.0882 8.79738 30.1456 8.59026C30.1973 8.39465 30.226 8.22206 30.226 8.08398C30.226 7.73591 30.0882 7.43674 29.8068 7.16634C29.5226 6.89307 29.1838 6.76074 28.7761 6.76074C28.3684 6.76074 28.0526 6.87581 27.8574 7.10881C27.6306 7.38209 27.3894 7.86823 27.1454 8.54999L23.5882 18.2096L20.2722 8.91819C19.9937 8.09836 19.7439 7.50866 19.5229 7.1721C19.342 6.89307 18.9946 6.76074 18.4635 6.76074C18.1878 6.76074 17.9409 6.8269 17.7055 6.96498C17.4701 7.10306 17.2835 7.27853 17.1543 7.4914C17.0251 7.70139 16.9619 7.90275 16.9619 8.10987C16.9619 8.25082 16.9906 8.42917 17.0423 8.63341C17.0997 8.85203 17.1686 9.06778 17.2519 9.27777C17.3409 9.49927 17.427 9.72364 17.5103 9.94514L21.1019 18.8166C21.455 19.6594 21.7106 20.229 21.857 20.5109C21.9891 20.764 22.2015 21.0028 22.4857 21.2185C22.7527 21.4228 23.126 21.5263 23.594 21.5263C23.9586 21.5263 24.2715 21.4573 24.5184 21.325C24.7711 21.1869 24.9807 20.9999 25.1558 20.7525" fill="#232F5D"/>
<path d="M40.5931 14.8981C40.5931 16.1523 40.4294 17.0383 40.0878 17.605C39.795 18.1142 39.3327 18.5399 38.7126 18.8592C38.1011 19.1756 37.4235 19.3367 36.7029 19.3367C35.9822 19.3367 35.4109 19.1267 34.9659 18.7154C34.5152 18.2983 34.2855 17.7834 34.2855 17.185C34.2855 16.5867 34.4893 16.1293 34.8884 15.7956C35.253 15.4907 35.6463 15.2807 36.054 15.1743C36.4244 15.0765 37.1019 14.924 38.0609 14.7198C39.0026 14.5184 39.7289 14.3257 40.2199 14.1473C40.306 14.1157 40.4007 14.1272 40.4754 14.1818C40.55 14.2336 40.596 14.3199 40.596 14.412V14.901L40.5931 14.8981ZM44.2134 18.8765C43.9723 18.0854 43.8488 17.3116 43.8488 16.5781C43.8574 15.8215 43.866 15.134 43.8689 14.5184C43.8747 13.9028 43.8747 13.152 43.8747 12.2689C43.8747 10.9169 43.6852 9.82379 43.3119 9.01547C42.9473 8.22728 42.3387 7.66634 41.4487 7.29814C40.5385 6.92418 39.2581 6.73145 37.6446 6.73145C36.2033 6.73145 34.9889 6.92993 34.0328 7.31827C33.0911 7.70086 32.3906 8.19276 31.9542 8.77383C31.5236 9.34628 31.3054 9.94173 31.3054 10.5401C31.3054 10.8824 31.426 11.1557 31.6729 11.3743C31.9313 11.6015 32.2298 11.7137 32.5887 11.7137C33.2089 11.7626 33.5074 11.3484 33.8634 10.7587C33.9122 10.6781 33.9582 10.6005 34.0041 10.5286C34.3745 9.95899 34.8252 9.52175 35.3478 9.23409C35.8789 8.94068 36.6311 8.79972 37.6446 8.79972C38.8619 8.79972 39.6571 9.06437 40.0706 9.60805C40.4639 10.123 40.6792 10.891 40.728 11.9525C40.7338 12.0819 40.6505 12.197 40.5271 12.2344C39.7318 12.4645 38.9853 12.663 38.3078 12.8241C37.6331 12.9852 36.812 13.1635 35.8588 13.3563C34.9171 13.549 34.3171 13.6727 34.0816 13.7273C32.9993 13.9632 32.1437 14.4264 31.5322 15.1052C30.9207 15.787 30.6221 16.5867 30.6221 17.5561C30.6221 18.2666 30.8087 18.9311 31.1762 19.5381C31.5437 20.145 32.0777 20.6312 32.761 20.9879C33.45 21.3475 34.2654 21.5287 35.1812 21.5287C36.1976 21.5287 37.1278 21.3561 37.9432 21.0195C38.7671 20.6772 39.637 20.1537 40.5242 19.4633C40.573 19.4259 40.6333 19.4058 40.6965 19.4058C40.7137 19.4058 40.7309 19.4058 40.7453 19.4115C40.8228 19.4259 40.8917 19.4719 40.9347 19.541C41.3453 20.2083 41.7329 20.7204 42.0918 21.0656C42.4133 21.3762 42.7349 21.5316 43.0449 21.5316C43.4383 21.5316 43.7828 21.3992 44.0986 21.1231C44.4001 20.8584 44.5493 20.5823 44.5493 20.2774C44.5493 20.1681 44.5063 19.843 44.2077 18.8736" fill="#232F5D"/>
<path d="M63.9432 19.9349C63.9432 19.6502 63.8513 19.42 63.659 19.2273C63.4666 19.0374 63.2628 18.9425 63.0331 18.9425C62.8407 18.9425 62.5623 18.9799 62.2034 19.0547C61.8043 19.1381 61.4914 19.1784 61.2473 19.1784C60.7621 19.1784 60.3975 19.049 60.1621 18.7901C59.9439 18.5513 59.8089 18.2406 59.7601 17.8667C59.7171 17.533 59.6941 17.0785 59.6941 16.4715V9.25988H60.6789C61.3765 9.25988 61.9134 9.16782 62.2751 8.9866C62.5795 8.83126 62.723 8.57237 62.723 8.17252C62.723 7.85609 62.6139 7.60583 62.3929 7.40734C62.1661 7.2031 61.8187 7.09955 61.3564 7.09955H59.6941V4.25171C59.6941 3.63899 59.6625 3.16148 59.5965 2.83642C59.5391 2.54876 59.407 2.31 59.1888 2.10864C58.8529 1.79509 58.4883 1.64551 58.0806 1.64551C57.7878 1.64551 57.5294 1.71167 57.2939 1.84975C57.0585 1.98782 56.8834 2.16042 56.7599 2.37617C56.6336 2.59191 56.5532 2.8508 56.5274 3.15285C56.4958 3.48653 56.4814 3.9583 56.4814 4.55663V16.7764C56.4814 17.9156 56.5733 18.8332 56.7542 19.5063C56.9265 20.1421 57.2796 20.6282 57.8337 20.9878C58.3935 21.3502 59.2434 21.5372 60.3631 21.5372C61.5574 21.5372 62.479 21.3848 63.102 21.0827C63.6647 20.8094 63.9403 20.4355 63.9403 19.9378" fill="#232F5D"/>
<path d="M67.6416 12.9047C67.7766 11.5786 68.1699 10.5545 68.813 9.86412C69.4676 9.15935 70.3174 8.80265 71.3337 8.80265C72.3501 8.80265 73.2659 9.15647 73.9205 9.84974C74.5665 10.5344 74.9426 11.5671 75.0402 12.9133L75.0603 13.2125H67.61L67.6416 12.9047ZM77.5466 18.9024C77.7878 18.491 77.9084 18.1372 77.9084 17.8496C77.9084 17.5446 77.8222 17.3174 77.6442 17.1621C77.4547 16.9952 77.2078 16.9147 76.8892 16.9147C76.5992 16.9147 76.381 16.9751 76.2432 17.0959C75.7809 17.5303 75.3905 17.887 75.0976 18.143C74.7933 18.4076 74.4574 18.6608 74.0985 18.8938C73.7253 19.1325 73.3348 19.3109 72.9386 19.4259C72.5424 19.5381 72.1003 19.5957 71.6266 19.5957C70.906 19.5957 70.237 19.4144 69.6399 19.0606C69.0398 18.7039 68.5517 18.1689 68.1929 17.4699C67.8369 16.7795 67.6531 15.9769 67.6445 15.0794V14.7975H75.3044C76.2403 14.7975 76.9695 14.6652 77.472 14.4063C77.9198 14.1761 78.1352 13.6526 78.1352 12.8098C78.1352 11.8403 77.8825 10.8709 77.3801 9.93028C76.8805 8.99538 76.1197 8.22158 75.1149 7.629C74.1071 7.03642 72.8784 6.73438 71.4629 6.73438C70.3691 6.73438 69.3614 6.91272 68.4685 7.26079C67.5813 7.60886 66.8263 8.11227 66.2205 8.7595C65.6147 9.40962 65.1467 10.2007 64.828 11.1126C64.5094 12.0302 64.3457 13.0428 64.3457 14.1215C64.3457 16.4026 64.9974 18.2264 66.2836 19.5468C67.567 20.8642 69.4016 21.5345 71.7357 21.5345C72.7606 21.5345 73.6765 21.3993 74.4574 21.1346C75.2412 20.87 75.8958 20.5334 76.4068 20.1365C76.915 19.7424 77.2997 19.3253 77.5466 18.9024Z" fill="#232F5D"/>
<path d="M54.2302 10.4994C54.1613 10.0018 54.0091 9.52999 53.7765 9.10137C53.4119 8.35633 52.8607 7.77814 52.1315 7.37541C51.3936 6.96693 50.5409 6.7627 49.5992 6.7627C48.6575 6.7627 47.756 6.9583 47.0124 7.34665C46.3464 7.69184 45.7205 8.22401 45.1434 8.92878C45.109 8.97193 45.0889 9.02658 45.0889 9.08411V10.3815C45.0889 10.6087 45.3817 10.7123 45.5138 10.5282C45.7291 10.2376 45.9818 9.98449 46.2717 9.77162C46.8718 9.33726 47.5436 9.11863 48.2728 9.11863C49.4126 9.11863 50.1907 9.50122 50.5869 10.2549C50.9572 10.9597 51.1381 11.9348 51.1381 13.2351V19.5176C51.1381 20.182 51.2903 20.6912 51.5946 21.0306C51.8932 21.3672 52.2721 21.5312 52.7545 21.5312C53.2368 21.5312 53.6014 21.373 53.8943 21.045C54.19 20.7142 54.3421 20.1993 54.3421 19.5176V12.5015C54.3421 11.6903 54.3048 11.0143 54.233 10.4965" fill="#232F5D"/>
<path d="M108.212 9.38867V14.4572H107.598L105.413 10.6227V14.4572H104.781V9.38867H105.381L107.58 13.2606V9.38867H108.212Z" fill="#25305D"/>
<path d="M113.391 9.38862V12.3918C113.391 13.8905 112.679 14.5147 111.559 14.5147C110.44 14.5147 109.728 13.8905 109.728 12.3975V9.38574H110.359V12.3975C110.359 13.5079 110.784 13.9394 111.562 13.9394C112.34 13.9394 112.765 13.505 112.765 12.3975V9.38574H113.397L113.391 9.38862Z" fill="#25305D"/>
<path d="M118.212 9.38867V9.96112H116.673V14.4572H116.042V9.96112H114.503V9.38867H118.212Z" fill="#25305D"/>
<path d="M122.2 14.4572L121.143 12.3199H119.949V14.4572H119.317V9.38867H120.931C122.097 9.38867 122.771 9.87482 122.771 10.8586C122.771 11.572 122.418 12.0179 121.775 12.2106L122.903 14.4572H122.2ZM120.931 11.7475C121.789 11.7475 122.14 11.4828 122.14 10.8586C122.14 10.2344 121.786 9.96112 120.931 9.96112H119.949V11.7475H120.931Z" fill="#25305D"/>
<path d="M124.766 14.4572H124.135V9.38867H124.766V14.4572Z" fill="#25305D"/>
<path d="M129.752 9.38867V14.4572H129.138L126.953 10.6227V14.4572H126.321V9.38867H126.921L129.121 13.2606V9.38867H129.752Z" fill="#25305D"/>
<path d="M131.281 14.4572V9.38867H132.895C134.017 9.38867 134.726 10.0215 134.726 11.6583V12.1876C134.726 13.8244 134.014 14.4572 132.895 14.4572H131.281ZM134.095 12.1876V11.6583C134.095 10.4012 133.67 9.96112 132.892 9.96112H131.91V13.8848H132.892C133.67 13.8848 134.095 13.4447 134.095 12.1876Z" fill="#25305D"/>
<path d="M137.7 14.5176C136.577 14.5176 135.868 13.8416 135.868 12.2048V11.6468C135.868 10.01 136.58 9.33398 137.7 9.33398C138.82 9.33398 139.532 10.01 139.532 11.6468V12.2048C139.532 13.8416 138.82 14.5176 137.7 14.5176ZM136.497 12.202C136.497 13.459 136.922 13.9423 137.7 13.9423C138.478 13.9423 138.903 13.4562 138.903 12.202V11.6439C138.903 10.3868 138.478 9.90355 137.7 9.90355C136.922 9.90355 136.497 10.3897 136.497 11.6439V12.202Z" fill="#25305D"/>
<path d="M145.794 10.5134C145.524 10.1596 145.228 9.90355 144.591 9.90355C144.005 9.90355 143.609 10.1682 143.609 10.6975C143.609 11.2987 144.063 11.5058 144.803 11.6381C145.779 11.8079 146.374 12.1588 146.374 13.0995C146.374 13.7611 145.934 14.5176 144.674 14.5176C143.853 14.5176 143.253 14.2386 142.871 13.6863L143.391 13.3267C143.721 13.7151 144.014 13.9452 144.674 13.9452C145.504 13.9452 145.745 13.5626 145.745 13.1311C145.745 12.6536 145.504 12.3314 144.551 12.1847C143.597 12.038 142.983 11.5835 142.983 10.7004C142.983 9.97259 143.46 9.33398 144.617 9.33398C145.423 9.33398 145.929 9.60438 146.288 10.1653L145.797 10.5191L145.794 10.5134Z" fill="#25305D"/>
<path d="M150.682 9.38867V9.96112H148.262V11.549H150.461V12.1214H148.262V13.8848H150.682V14.4572H147.633V9.38867H150.682Z" fill="#25305D"/>
<path d="M155.577 9.38862V12.3918C155.577 13.8905 154.865 14.5147 153.746 14.5147C152.626 14.5147 151.914 13.8905 151.914 12.3975V9.38574H152.546V12.3975C152.546 13.5079 152.971 13.9394 153.749 13.9394C154.527 13.9394 154.952 13.505 154.952 12.3975V9.38574H155.583L155.577 9.38862Z" fill="#25305D"/>
<path d="M107.31 19.7735C107.215 19.2959 106.937 19.0025 106.437 19.0025C105.843 19.0025 105.527 19.4052 105.527 20.3747V21.0938C105.527 22.0345 105.843 22.466 106.437 22.466C106.951 22.466 107.201 22.2099 107.31 21.695H108.286C108.117 22.8342 107.479 23.3347 106.437 23.3347C105.3 23.3347 104.502 22.6443 104.502 21.0938V20.3747C104.502 18.8098 105.3 18.1338 106.437 18.1338C107.442 18.1338 108.122 18.6631 108.292 19.7735H107.31Z" fill="#25305D"/>
<path d="M111.252 23.3376C110.116 23.3376 109.317 22.6472 109.317 21.0967V20.3776C109.317 18.8127 110.116 18.1367 111.252 18.1367C112.389 18.1367 113.196 18.8127 113.196 20.3776V21.0967C113.196 22.6472 112.398 23.3376 111.252 23.3376ZM110.342 21.0967C110.342 22.0662 110.658 22.4689 111.252 22.4689C111.847 22.4689 112.168 22.0662 112.168 21.0967V20.3776C112.168 19.4082 111.847 19.0055 111.252 19.0055C110.658 19.0055 110.342 19.4082 110.342 20.3776V21.0967Z" fill="#25305D"/>
<path d="M118.235 18.2031V23.2717H117.376L115.404 20.1362V23.2717H114.428V18.2031H115.278L117.256 21.3846V18.2031H118.232H118.235Z" fill="#25305D"/>
<path d="M120.649 20.2167H122.4V18.2031H123.428V23.2717H122.4V21.0826H120.649V23.2717H119.621V18.2031H120.649V20.2167Z" fill="#25305D"/>
<path d="M127.967 18.2031V19.0776H125.839V20.2167H127.746V21.0826H125.839V22.4058H127.967V23.2717H124.814V18.2031H127.967Z" fill="#25305D"/>
<path d="M131.725 19.7735C131.63 19.2959 131.352 19.0025 130.852 19.0025C130.258 19.0025 129.942 19.4052 129.942 20.3747V21.0938C129.942 22.0345 130.258 22.466 130.852 22.466C131.366 22.466 131.616 22.2099 131.725 21.695H132.701C132.532 22.8342 131.894 23.3347 130.852 23.3347C129.715 23.3347 128.917 22.6443 128.917 21.0938V20.3747C128.917 18.8098 129.715 18.1338 130.852 18.1338C131.857 18.1338 132.537 18.6631 132.707 19.7735H131.725Z" fill="#25305D"/>
<path d="M134.88 23.2717H133.853V18.2031H134.88V23.2717Z" fill="#25305D"/>
<path d="M138.67 20.9646L140.077 18.2031H141.053V23.2716H140.071V20.1275L138.971 22.3598H138.348L137.263 20.1477V23.2688H136.287V18.2002H137.249L138.67 20.9617V20.9646Z" fill="#25305D"/>
<path d="M145.593 18.2031V19.0776H143.465V20.2167H145.372V21.0826H143.465V22.4058H145.593V23.2717H142.44V18.2031H145.593Z" fill="#25305D"/>
<path d="M150.577 18.2031V23.2717H149.719L147.747 20.1362V23.2717H146.771V18.2031H147.62L149.598 21.3846V18.2031H150.575H150.577Z" fill="#25305D"/>
<path d="M155.425 18.2031V19.0776H154.033V23.2717H153.005V19.0776H151.612V18.2031H155.425Z" fill="#25305D"/>
<path d="M158.208 23.3376C157.071 23.3376 156.272 22.6472 156.272 21.0967V20.3776C156.272 18.8127 157.071 18.1367 158.208 18.1367C159.344 18.1367 160.151 18.8127 160.151 20.3776V21.0967C160.151 22.6472 159.353 23.3376 158.208 23.3376ZM157.297 21.0967C157.297 22.0662 157.613 22.4689 158.208 22.4689C158.802 22.4689 159.123 22.0662 159.123 21.0967V20.3776C159.123 19.4082 158.802 19.0055 158.208 19.0055C157.613 19.0055 157.297 19.4082 157.297 20.3776V21.0967Z" fill="#25305D"/>
<path d="M162.328 23.2709H161.186V22.126H162.328V23.2709Z" fill="#25305D"/>
<path d="M90.716 0H90.7131C90.2168 0 89.8145 0.403112 89.8145 0.900377V31.2083C89.8145 31.7055 90.2168 32.1086 90.7131 32.1086H90.716C91.2123 32.1086 91.6146 31.7055 91.6146 31.2083V0.900377C91.6146 0.403112 91.2123 0 90.716 0Z" fill="#232F5D"/>
</g>
<defs>
<clipPath id="clip0_232_14513">
<rect width="162.327" height="32.1086" fill="white"/>
</clipPath>
</defs>
</svg>
