<svg width="252" height="50" viewBox="0 0 252 50" fill="none" xmlns="http://www.w3.org/2000/svg">
<path d="M91.7168 48.1821V41.1582H93.3416V48.1821H91.7212H91.7168ZM91.7168 39.8323V38.2734H93.3416V39.8323H91.7212H91.7168Z" fill="white"/>
<path d="M39.5488 38.2734H41.258V42.4125H45.1868V38.2734H46.8959V48.1821H45.1868V43.9579H41.258V48.1821H39.5488V38.2734Z" fill="white"/>
<path d="M52.5436 43.2861C52.3571 42.7172 51.8333 42.3812 51.1807 42.3812C50.5281 42.3812 49.9909 42.7172 49.8045 43.2861C49.7468 43.4608 49.7157 43.6355 49.7157 43.8819C49.7157 43.9311 49.7557 43.9715 49.8045 43.9715H52.5436C52.5924 43.9715 52.6323 43.9311 52.6323 43.8819C52.6323 43.6355 52.6013 43.4608 52.5436 43.2861ZM48.3306 46.3904C48.1841 45.9379 48.082 45.4004 48.082 44.6702C48.082 43.9401 48.1708 43.3891 48.3129 42.9367C48.7035 41.7138 49.7779 40.9971 51.1674 40.9971C52.5569 40.9971 53.6445 41.7407 54.0352 42.9367C54.195 43.4339 54.266 43.9132 54.266 45.051C54.266 45.1406 54.2083 45.1988 54.1062 45.1988H49.8045C49.7557 45.1988 49.7157 45.2391 49.7157 45.2839C49.7157 45.49 49.7601 45.6647 49.8178 45.826C50.0487 46.5113 50.5991 46.8921 51.3849 46.8921C52.1707 46.8921 52.6723 46.6009 53.023 46.2202C53.094 46.1485 53.1695 46.135 53.2405 46.1888L54.0929 46.9458C54.1639 47.0041 54.1639 47.0757 54.1062 47.1519C53.5113 47.8507 52.5258 48.3479 51.2384 48.3479C49.7601 48.3479 48.7169 47.6177 48.3262 46.3948" fill="white"/>
<path d="M59.4097 45.8214V45.2839C59.4097 45.2346 59.3697 45.1988 59.3253 45.1988H58.1667C57.1234 45.1988 56.6617 45.49 56.6617 46.144C56.6617 46.7263 57.0835 47.0175 57.8648 47.0175C58.8636 47.0175 59.4141 46.6233 59.4141 45.8214M59.5828 48.1821C59.5029 48.1821 59.4363 48.1194 59.4363 48.0343V47.5236H59.423C59.09 48.0029 58.4375 48.3389 57.4519 48.3389C56.1778 48.3389 55.1035 47.667 55.1035 46.1977C55.1035 44.7284 56.1734 43.9669 57.9003 43.9669H59.3209C59.3697 43.9669 59.4052 43.9266 59.4052 43.8773V43.5414C59.4052 42.7396 59.0279 42.3767 57.8559 42.3767C57.0746 42.3767 56.5951 42.5962 56.2622 42.856C56.1912 42.9143 56.1024 42.9008 56.058 42.8291L55.5208 41.8661C55.4764 41.7944 55.4942 41.7182 55.5519 41.6779C56.1157 41.2703 56.8837 40.9926 58.029 40.9926C60.1599 40.9926 60.9412 41.7227 60.9412 43.4428V48.1776H59.5784L59.5828 48.1821Z" fill="white"/>
<path d="M64.3059 48.2716C62.9431 48.2716 62.3926 47.6176 62.3926 46.2604V38.2734H64.0174V46.1708C64.0174 46.6501 64.2038 46.8113 64.6256 46.8113H64.9452C65.0251 46.8113 65.0917 46.8785 65.0917 46.9547V48.2672H64.3104L64.3059 48.2716Z" fill="white"/>
<path d="M68.1741 48.2722C66.7712 48.2722 66.2341 47.5868 66.2341 46.2161V42.5161C66.2341 42.4668 66.1941 42.431 66.1453 42.431H65.6836C65.6037 42.431 65.5371 42.3638 65.5371 42.2831V41.3066C65.5371 41.226 65.6037 41.1588 65.6836 41.1588H66.1453C66.1941 41.1588 66.2341 41.1185 66.2341 41.0737V39.0042H67.8589V41.1588H69.0175V42.4265H67.8589V46.1579C67.8589 46.6551 68.0631 46.8119 68.5115 46.8119H68.8755C68.9554 46.8119 69.022 46.8791 69.022 46.9552V48.2677H68.183L68.1741 48.2722Z" fill="white"/>
<path d="M74.5421 48.1821V43.9848C74.5421 43.0799 74.0938 42.4528 73.2236 42.4528C72.3535 42.4528 71.8918 43.0799 71.8918 43.9848V48.1821H70.2715V38.2734H71.8918V41.8167H71.9052C72.2292 41.3508 72.8951 40.9522 73.9206 41.0059C75.1858 41.0686 76.1625 42.1661 76.1625 43.4428V48.1865H74.5421V48.1821Z" fill="white"/>
<path d="M76.8567 47.031C76.799 46.9727 76.768 46.8831 76.8257 46.8115L77.7224 45.7633C77.7801 45.6916 77.8689 45.6916 77.9266 45.7498C78.5659 46.2605 79.507 46.798 80.608 46.798C81.78 46.798 82.4636 46.2023 82.4636 45.3691C82.4636 44.6568 82.0286 44.1865 80.6657 43.9983L80.1463 43.9267C78.2507 43.6624 77.1764 42.7441 77.1764 41.1001C77.1764 39.3083 78.4815 38.1123 80.5103 38.1123C81.74 38.1123 82.9164 38.5065 83.6978 39.1023C83.7688 39.1605 83.7865 39.2187 83.7288 39.3038L83.0319 40.3834C82.9742 40.4551 82.9031 40.4685 82.8276 40.4282C82.0286 39.9041 81.2916 39.6577 80.4659 39.6577C79.4671 39.6577 78.9166 40.2132 78.9166 40.9837C78.9166 41.669 79.396 42.1349 80.7278 42.323L81.2517 42.3947C83.1473 42.659 84.1905 43.5594 84.1905 45.266C84.1905 46.9727 82.9298 48.339 80.4837 48.339C79.0365 48.339 77.6292 47.7566 76.8612 47.0265" fill="white"/>
<path d="M85.2566 46.4038C85.1101 45.9648 85.0391 45.4138 85.0391 44.6702C85.0391 43.9267 85.1101 43.3712 85.2566 42.9367C85.6606 41.6824 86.7349 40.9971 88.1377 40.9971C89.181 40.9971 90.0067 41.4181 90.5572 42.0901C90.6016 42.1483 90.6149 42.2379 90.5438 42.2961L89.6293 43.0979C89.5583 43.1562 89.4828 43.1427 89.4251 43.0711C89.0789 42.6769 88.7148 42.4574 88.1377 42.4574C87.5162 42.4574 87.0368 42.762 86.8326 43.3757C86.7171 43.7251 86.6861 44.1327 86.6861 44.6747C86.6861 45.49 86.7526 46.041 87.0856 46.4755C87.2543 46.6995 87.5207 46.8383 87.7959 46.8697C88.5817 46.9637 89.0123 46.7442 89.4207 46.2784C89.4784 46.2067 89.5494 46.2067 89.6249 46.2649L90.5394 47.0668C90.6104 47.125 90.5971 47.1967 90.5527 47.2728C90.0022 47.9268 89.1765 48.3524 88.1333 48.3524C86.726 48.3524 85.6561 47.667 85.2522 46.4128" fill="white"/>
<path d="M98.9615 43.2861C98.7751 42.7172 98.2512 42.3812 97.5987 42.3812C96.9461 42.3812 96.4089 42.7172 96.2225 43.2861C96.1647 43.4608 96.1337 43.6355 96.1337 43.8819C96.1337 43.9311 96.1736 43.9715 96.2225 43.9715H98.9615C99.0104 43.9715 99.0503 43.9311 99.0503 43.8819C99.0503 43.6355 99.0237 43.4608 98.9615 43.2861ZM94.7442 46.3904C94.5977 45.9379 94.5 45.4004 94.5 44.6702C94.5 43.9401 94.5888 43.3891 94.7308 42.9367C95.1215 41.7138 96.1958 40.9971 97.5853 40.9971C98.9748 40.9971 100.062 41.7407 100.453 42.9367C100.613 43.4339 100.684 43.9132 100.684 45.051C100.684 45.1406 100.626 45.1988 100.524 45.1988H96.2225C96.1736 45.1988 96.1337 45.2391 96.1337 45.2839C96.1337 45.49 96.1781 45.6647 96.2358 45.826C96.4666 46.5113 97.0171 46.8921 97.7984 46.8921C98.5797 46.8921 99.0858 46.6009 99.4365 46.2202C99.5076 46.1485 99.583 46.135 99.6541 46.1888L100.506 46.9458C100.577 47.0041 100.577 47.0757 100.52 47.1519C99.9249 47.8507 98.9393 48.3479 97.6519 48.3479C96.1736 48.3479 95.1304 47.6177 94.7397 46.3948" fill="white"/>
<path d="M106.115 48.1819V43.9846C106.115 43.0797 105.667 42.4526 104.796 42.4526C103.926 42.4526 103.465 43.0797 103.465 43.9846V48.1819H101.84V41.158H103.318C103.398 41.158 103.465 41.2252 103.465 41.3059V41.8165H103.478C103.802 41.3506 104.468 40.952 105.493 41.0057C106.763 41.0684 107.735 42.1659 107.735 43.4426V48.1863H106.11L106.115 48.1819Z" fill="white"/>
<path d="M109.042 46.4038C108.895 45.9648 108.824 45.4138 108.824 44.6702C108.824 43.9267 108.895 43.3712 109.042 42.9367C109.45 41.6824 110.52 40.9971 111.923 40.9971C112.966 40.9971 113.792 41.4181 114.342 42.0901C114.387 42.1483 114.4 42.2379 114.329 42.2961L113.414 43.0979C113.343 43.1562 113.268 43.1427 113.21 43.0711C112.864 42.6769 112.5 42.4574 111.923 42.4574C111.301 42.4574 110.822 42.762 110.618 43.3757C110.502 43.7251 110.471 44.1327 110.471 44.6747C110.471 45.49 110.538 46.041 110.871 46.4755C111.044 46.6995 111.306 46.8383 111.581 46.8697C112.367 46.9637 112.797 46.7442 113.206 46.2784C113.264 46.2067 113.335 46.2067 113.41 46.2649L114.325 47.0668C114.396 47.125 114.382 47.1967 114.338 47.2728C113.787 47.9268 112.962 48.3524 111.918 48.3524C110.511 48.3524 109.441 47.667 109.037 46.4128" fill="white"/>
<path d="M119.584 43.2861C119.398 42.7172 118.874 42.3812 118.221 42.3812C117.569 42.3812 117.031 42.7172 116.845 43.2861C116.787 43.4608 116.756 43.6355 116.756 43.8819C116.756 43.9311 116.796 43.9715 116.845 43.9715H119.584C119.633 43.9715 119.673 43.9311 119.673 43.8819C119.673 43.6355 119.642 43.4608 119.584 43.2861ZM115.371 46.3904C115.225 45.9379 115.127 45.4004 115.127 44.6702C115.127 43.9401 115.211 43.3891 115.358 42.9367C115.748 41.7138 116.823 40.9971 118.212 40.9971C119.602 40.9971 120.689 41.7407 121.08 42.9367C121.24 43.4339 121.311 43.9132 121.311 45.051C121.311 45.1406 121.253 45.1988 121.151 45.1988H116.849C116.801 45.1988 116.761 45.2391 116.761 45.2839C116.761 45.49 116.805 45.6647 116.863 45.826C117.094 46.5113 117.644 46.8921 118.425 46.8921C119.207 46.8921 119.717 46.6009 120.063 46.2202C120.135 46.1485 120.21 46.135 120.281 46.1888L121.133 46.9458C121.204 47.0041 121.204 47.0757 121.147 47.1519C120.552 47.8507 119.566 48.3479 118.279 48.3479C116.801 48.3479 115.757 47.6177 115.367 46.3948" fill="white"/>
<path d="M32.1258 43.7386C32.2102 42.9367 32.8184 42.3365 33.7462 42.3365C34.674 42.3365 35.2822 42.9367 35.3665 43.7386H32.1258ZM33.7417 40.8851C31.4954 40.8851 30.2302 42.6501 30.2302 44.518C30.2302 46.5069 31.5842 48.2539 33.7551 48.2539C34.8383 48.2539 35.8993 47.8418 36.5074 47.1206C36.7738 46.807 36.9869 46.3725 36.9869 46.1037C36.9869 46.0141 36.9691 45.9335 36.9159 45.8753C36.8626 45.8081 36.7871 45.7723 36.6495 45.7723H35.6063C35.3976 45.7723 35.2556 45.8484 35.1534 46.0052C34.8471 46.4531 34.4076 46.6905 33.7595 46.6905C32.7873 46.6905 32.1569 45.947 32.1125 45.1317H36.6362C36.836 45.1317 36.978 45.0869 37.0757 44.9883C37.1867 44.8853 37.2399 44.733 37.2399 44.4553C37.2399 43.5997 36.9736 42.7128 36.4187 42.0364C35.8504 41.351 34.967 40.8896 33.7417 40.8896M36.5962 39.8862C36.7338 39.8862 36.836 39.8459 36.9159 39.7832C37.0002 39.707 37.0402 39.5995 37.0402 39.4427V38.838C37.0402 38.6051 36.9958 38.4841 36.9159 38.4035C36.8448 38.3274 36.7294 38.2781 36.5962 38.2781C36.4941 38.2781 36.3876 38.2915 36.2144 38.3094L31.0426 38.8246C30.8917 38.838 30.8207 38.8828 30.7718 38.941C30.7141 39.0082 30.6875 39.0889 30.6875 39.2098V39.5503C30.6875 39.6802 30.7141 39.7384 30.7585 39.7921C30.8162 39.8593 30.9006 39.8907 31.016 39.8907H36.5962V39.8862ZM11.1144 43.7386C11.1988 42.9367 11.807 42.3365 12.7348 42.3365C13.6626 42.3365 14.2708 42.9367 14.3552 43.7386H11.1144ZM27.682 47.5416C27.682 47.7119 27.7353 47.8373 27.8108 47.9314C27.9085 48.0478 28.0461 48.1195 28.2458 48.1195H29.0183C29.2181 48.1195 29.3557 48.0478 29.4533 47.9314C29.5333 47.8328 29.5821 47.7074 29.5821 47.5416V39.0082C29.5821 38.838 29.5288 38.7126 29.4533 38.6185C29.3557 38.5021 29.2181 38.4304 29.0183 38.4304H28.2458C28.0461 38.4304 27.9085 38.5021 27.8108 38.6185C27.7309 38.7171 27.682 38.838 27.682 39.0082V47.5416ZM23.7177 41.1315H23.3537C23.2161 41.1315 23.114 41.1718 23.0385 41.2345C22.9542 41.3107 22.9142 41.4182 22.9142 41.575V42.0229C22.9142 42.1797 22.9542 42.2827 23.0385 42.3634C23.114 42.4306 23.2205 42.4664 23.3537 42.4664H23.7177V45.7185C23.7177 46.5517 23.9441 47.0758 24.3659 47.4924C24.7565 47.8776 25.2582 48.1195 26.1416 48.1195H26.6921C26.8297 48.1195 26.9318 48.0792 27.0073 48.0165C27.0916 47.9403 27.1449 47.8328 27.1449 47.676V47.1071C27.1449 46.9504 27.0916 46.8473 27.0073 46.7667C26.9318 46.6995 26.8253 46.6637 26.6921 46.6637H26.6122C26.2615 46.6637 26.0217 46.5741 25.8619 46.4173C25.6666 46.2336 25.5689 45.9559 25.5689 45.5886V42.4664H26.7498C26.8874 42.4664 26.9895 42.4261 27.0694 42.3634C27.1538 42.2872 27.1937 42.1797 27.1937 42.0229V41.575C27.1937 41.4182 27.1538 41.3152 27.0694 41.2345C26.9895 41.1673 26.8874 41.1315 26.7498 41.1315H25.5778V39.0082C25.5778 38.838 25.5245 38.7171 25.4491 38.6185C25.3514 38.5021 25.2138 38.4304 25.014 38.4304H24.2815C24.0817 38.4304 23.9441 38.5021 23.8465 38.6185C23.771 38.7171 23.7177 38.838 23.7177 39.0082V41.1315ZM19.6779 40.8851C17.9022 40.8851 16.7346 41.7318 16.7346 43.089C16.7346 43.5728 16.9078 43.9625 17.1963 44.2671C17.5248 44.6255 17.9999 44.8719 18.688 45.0511L20.1707 45.4273C20.5791 45.5304 20.9431 45.6558 20.9431 46.0141C20.9431 46.5696 20.3616 46.7577 19.7401 46.7577C19.4338 46.7577 19.1186 46.6995 18.8566 46.5696C18.6746 46.48 18.5193 46.3501 18.4083 46.1709C18.3106 46.0231 18.2795 45.9111 18.1286 45.826C18.0398 45.7723 17.9288 45.7678 17.7779 45.7678H16.9744C16.8012 45.7678 16.7169 45.8215 16.6547 45.8932C16.597 45.9649 16.5793 46.0679 16.5793 46.1754C16.5793 46.4352 16.6681 46.7622 16.8856 47.0534C17.3784 47.7164 18.4083 48.2539 19.7223 48.2539C21.0364 48.2539 22.8121 47.7119 22.8121 45.9649C22.8121 45.5169 22.6834 45.1317 22.4436 44.8181C22.1373 44.4195 21.7067 44.1462 20.9653 43.9581L19.4959 43.5818C18.8877 43.425 18.6036 43.313 18.6036 42.9367C18.6036 42.5605 18.9277 42.2783 19.6779 42.2783C20.1174 42.2783 20.5214 42.3768 20.7789 42.6501C20.992 42.8785 20.952 42.995 21.1207 43.0846C21.2228 43.1383 21.3427 43.1383 21.5203 43.1383H22.2527C22.3682 43.1383 22.4525 43.1204 22.5191 43.0487C22.5724 42.9905 22.6034 42.9009 22.6034 42.7486C22.6034 42.4082 22.3815 41.9737 21.9953 41.6422C21.4759 41.1942 20.659 40.8941 19.6735 40.8941M12.7259 40.8851C10.4796 40.8851 9.21441 42.6501 9.21441 44.518C9.21441 46.5069 10.5684 48.2539 12.7392 48.2539C13.8224 48.2539 14.8834 47.8418 15.4916 47.1206C15.758 46.807 15.9711 46.3725 15.9711 46.1037C15.9711 46.0141 15.9533 45.9335 15.9001 45.8753C15.8468 45.8081 15.7713 45.7723 15.6337 45.7723H14.5904C14.3818 45.7723 14.2397 45.8484 14.1376 46.0052C13.8313 46.4531 13.3918 46.6905 12.7437 46.6905C11.7715 46.6905 11.1411 45.947 11.0967 45.1317H15.6071C15.8068 45.1317 15.9489 45.0869 16.0466 44.9883C16.1575 44.8853 16.2108 44.733 16.2108 44.4553C16.2108 43.5997 15.9444 42.7128 15.3895 42.0364C14.8213 41.351 13.9512 40.8896 12.7259 40.8896M6.81717 38.6409C6.72839 38.7529 6.67511 38.8738 6.67511 39.0889V45.0063H6.64404C6.64404 45.0063 3.42552 39.2322 3.27014 38.9634C3.15916 38.7753 3.03486 38.6454 2.87504 38.5468C2.71079 38.4573 2.54209 38.399 2.22246 38.399H1.15258C0.908419 38.399 0.753042 38.4841 0.642059 38.614C0.553272 38.726 0.5 38.847 0.5 39.062V47.4521C0.5 47.6671 0.553272 47.7925 0.642059 47.9C0.753042 48.0299 0.908419 48.115 1.15258 48.115H1.75633C2.0005 48.115 2.15587 48.0299 2.26686 47.9C2.35564 47.788 2.40891 47.6671 2.40891 47.4521V41.3868H2.43999C2.43999 41.3868 5.78281 47.3446 5.92043 47.5685C6.10688 47.8821 6.42651 48.115 6.87932 48.115H7.90925C8.15341 48.115 8.30879 48.0299 8.41977 47.9C8.50856 47.788 8.56183 47.6671 8.56183 47.4521V39.8817H22.0974C22.235 39.8817 22.3371 39.8414 22.417 39.7787C22.5013 39.7026 22.5413 39.595 22.5413 39.4383V38.8649C22.5413 38.7081 22.5013 38.6051 22.417 38.5244C22.3415 38.4573 22.235 38.4214 22.0974 38.4214H7.3277C7.08353 38.4214 6.92816 38.5065 6.81717 38.6364" fill="white"/>
<path d="M20.6543 21.7539C20.5833 21.8525 20.4723 21.9107 20.3524 21.9107H9.76019C9.64032 21.9107 9.52934 21.8525 9.45831 21.7539C9.39172 21.6554 9.37397 21.53 9.41392 21.418L14.6612 6.69839C14.7145 6.55056 14.8477 6.44754 15.0075 6.45202C15.1629 6.45202 15.3005 6.55056 15.3537 6.69391L20.6987 21.4135C20.7387 21.5255 20.7253 21.6509 20.6543 21.7539ZM28.0192 27.9759L19.833 7.63012C19.4468 6.6088 19.1272 5.79353 18.883 5.19328C18.6566 4.63783 18.3769 4.11373 18.044 3.63442C17.751 3.20887 17.3603 2.85051 16.8764 2.57726C16.4103 2.31297 15.7977 2.17859 15.0563 2.17859C14.3149 2.17859 13.7245 2.31297 13.2584 2.57726C12.7789 2.85051 12.3883 3.21335 12.0953 3.64786C11.7668 4.14508 11.4471 4.78117 11.1497 5.54716L10.3284 7.66596L2.31098 28.1327C1.99135 28.9345 1.76051 29.5572 1.62289 29.9917C1.50302 30.3725 1.44531 30.7398 1.44531 31.0847C1.44531 31.6133 1.6584 32.0657 2.11565 32.5047C2.58622 32.9526 3.08343 33.1632 3.6783 33.1632C4.35752 33.1632 4.81477 32.9974 5.07225 32.657C5.32085 32.321 5.76479 31.5326 6.45732 29.6647L8.05548 25.3375C8.10875 25.1942 8.24637 25.0956 8.40175 25.0956H21.7375C21.8885 25.0956 22.0261 25.1897 22.0793 25.333L23.6775 29.5662C23.8728 30.0365 24.1081 30.592 24.3789 31.2236C24.6275 31.7969 24.8584 32.218 25.0537 32.4644C25.2224 32.6794 25.431 32.8496 25.6841 32.975C25.9282 33.096 26.239 33.1587 26.6075 33.1587C27.2556 33.1587 27.775 32.9437 28.2323 32.4823C28.6851 32.0254 28.907 31.555 28.907 31.0399C28.907 30.6323 28.7517 29.7722 28.0059 27.9715" fill="white"/>
<path d="M39.3939 32.3297C39.6781 31.9221 39.9444 31.4204 40.1797 30.8336C40.4283 30.2199 40.6325 29.7137 40.7879 29.3106L46.8076 14.2953C46.923 14.0086 47.0252 13.6996 47.1139 13.377C47.1938 13.0724 47.2382 12.8037 47.2382 12.5886C47.2382 12.0466 47.0252 11.5808 46.5901 11.1597C46.1506 10.7341 45.6268 10.5281 44.9964 10.5281C44.366 10.5281 43.8777 10.7073 43.5758 11.0701C43.2251 11.4956 42.8522 12.2527 42.4748 13.3143L36.9745 28.3564L31.8471 13.8877C31.4165 12.611 31.0302 11.6927 30.6884 11.1686C30.4087 10.7341 29.8716 10.5281 29.0503 10.5281C28.6241 10.5281 28.2423 10.6311 27.8783 10.8461C27.5143 11.0611 27.2257 11.3344 27.026 11.6659C26.8262 11.9929 26.7285 12.3064 26.7285 12.629C26.7285 12.8484 26.7729 13.1262 26.8528 13.4442C26.9416 13.7847 27.0481 14.1206 27.1769 14.4476C27.3145 14.7925 27.4477 15.1419 27.5764 15.4869L33.13 29.3016C33.6761 30.6141 34.0712 31.501 34.2976 31.94C34.5018 32.3342 34.8303 32.706 35.2698 33.042C35.6827 33.36 36.2598 33.5213 36.9834 33.5213C37.5472 33.5213 38.0311 33.4138 38.4128 33.2077C38.8035 32.9927 39.1276 32.7015 39.3984 32.3163" fill="white"/>
<path d="M63.2674 23.2004C63.2674 25.1535 63.0144 26.5331 62.4861 27.4156C62.0333 28.2085 61.3185 28.8714 60.3597 29.3687C59.4141 29.8614 58.3664 30.1123 57.2521 30.1123C56.1378 30.1123 55.2544 29.7852 54.5663 29.1447C53.8693 28.4952 53.5142 27.6933 53.5142 26.7616C53.5142 25.8299 53.8294 25.1176 54.4465 24.598C55.0103 24.1232 55.6184 23.7962 56.2488 23.6304C56.8215 23.4781 57.8692 23.2407 59.3519 22.9227C60.808 22.6091 61.9312 22.309 62.6903 22.0313C62.8235 21.982 62.97 21.9999 63.0854 22.085C63.2008 22.1656 63.2719 22.3 63.2719 22.4434V23.2049L63.2674 23.2004ZM68.8654 29.3955C68.4925 28.1637 68.3016 26.9587 68.3016 25.8164C68.3149 24.6383 68.3283 23.5677 68.3327 22.6091C68.3416 21.6505 68.3416 20.4814 68.3416 19.1062C68.3416 17.0008 68.0486 15.2986 67.4715 14.0399C66.9077 12.8125 65.9665 11.939 64.5903 11.3656C63.1831 10.7833 61.2031 10.4832 58.7082 10.4832C56.4797 10.4832 54.6018 10.7922 53.1235 11.397C51.6674 11.9927 50.5842 12.7587 49.9095 13.6636C49.2436 14.555 48.9062 15.4823 48.9062 16.414C48.9062 16.947 49.0926 17.3726 49.4744 17.713C49.8739 18.0669 50.3356 18.2416 50.8906 18.2416C51.8494 18.3178 52.3111 17.6727 52.8616 16.7544C52.9371 16.629 53.0081 16.5081 53.0791 16.3961C53.6518 15.5091 54.3488 14.8283 55.1568 14.3803C55.978 13.9234 57.1411 13.7039 58.7082 13.7039C60.5905 13.7039 61.8202 14.116 62.4595 14.9626C63.0677 15.7645 63.4006 16.9605 63.4761 18.6134C63.4849 18.815 63.3562 18.9942 63.1653 19.0524C61.9356 19.4108 60.7814 19.7199 59.7337 19.9707C58.6905 20.2216 57.4208 20.4993 55.947 20.7994C54.4909 21.0995 53.563 21.2921 53.199 21.3773C51.5254 21.7446 50.2025 22.4658 49.2569 23.5229C48.3113 24.5846 47.8496 25.8299 47.8496 27.3395C47.8496 28.4459 48.1382 29.4806 48.7064 30.4258C49.2746 31.371 50.1004 32.128 51.1569 32.6835C52.2224 33.2434 53.4831 33.5256 54.8993 33.5256C56.4708 33.5256 57.9091 33.2568 59.1699 32.7327C60.444 32.1997 61.7891 31.3844 63.1609 30.3093C63.2363 30.2511 63.3296 30.2198 63.4272 30.2198C63.4539 30.2198 63.4805 30.2198 63.5027 30.2287C63.6226 30.2511 63.7291 30.3228 63.7957 30.4303C64.4305 31.4695 65.0298 32.2669 65.5848 32.8044C66.082 33.2882 66.5792 33.5301 67.0586 33.5301C67.6668 33.5301 68.1995 33.324 68.6878 32.894C69.154 32.4819 69.3848 32.0519 69.3848 31.577C69.3848 31.4068 69.3182 30.9006 68.8565 29.3911" fill="white"/>
<path d="M99.3718 31.0438C99.3718 30.6003 99.2298 30.242 98.9323 29.9418C98.6349 29.6462 98.3197 29.4984 97.9645 29.4984C97.6671 29.4984 97.2365 29.5566 96.6816 29.6731C96.0645 29.803 95.5806 29.8657 95.2033 29.8657C94.453 29.8657 93.8892 29.6641 93.5252 29.261C93.1878 28.8892 92.9792 28.4054 92.9037 27.823C92.8371 27.3034 92.8016 26.5957 92.8016 25.6505V14.4204H94.3243C95.4031 14.4204 96.2332 14.2771 96.7926 13.9949C97.2631 13.753 97.4851 13.3498 97.4851 12.7272C97.4851 12.2344 97.3164 11.8447 96.9746 11.5356C96.6239 11.2176 96.0867 11.0563 95.372 11.0563H92.8016V6.62164C92.8016 5.66751 92.7528 4.92392 92.6507 4.41774C92.5619 3.96979 92.3577 3.59799 92.0203 3.28443C91.5009 2.79617 90.9371 2.56323 90.3067 2.56323C89.8539 2.56323 89.4543 2.66626 89.0903 2.88128C88.7263 3.09629 88.4555 3.36506 88.2646 3.70102C88.0693 4.03698 87.945 4.44014 87.905 4.91048C87.8562 5.4301 87.834 6.16474 87.834 7.09647V26.1253C87.834 27.8992 87.976 29.3281 88.2557 30.3763C88.5221 31.3663 89.0681 32.1233 89.9249 32.6833C90.7906 33.2477 92.1046 33.5389 93.836 33.5389C95.6827 33.5389 97.1078 33.3015 98.0711 32.8311C98.9412 32.4056 99.3674 31.8232 99.3674 31.0483" fill="white"/>
<path d="M105.091 20.0962C105.299 18.0311 105.907 16.4364 106.902 15.3613C107.914 14.2639 109.228 13.7084 110.799 13.7084C112.371 13.7084 113.787 14.2594 114.799 15.339C115.798 16.4051 116.38 18.0132 116.531 20.1096L116.562 20.5755H105.042L105.091 20.0962ZM120.406 29.4359C120.779 28.7953 120.966 28.2443 120.966 27.7964C120.966 27.3216 120.832 26.9677 120.557 26.7258C120.264 26.466 119.882 26.3406 119.39 26.3406C118.941 26.3406 118.604 26.4346 118.391 26.6228C117.676 27.2992 117.072 27.8546 116.619 28.2533C116.149 28.6654 115.629 29.0596 115.075 29.4224C114.497 29.7942 113.894 30.072 113.281 30.2512C112.668 30.4259 111.985 30.5154 111.252 30.5154C110.138 30.5154 109.104 30.2332 108.18 29.6823C107.252 29.1268 106.498 28.2936 105.943 27.2051C105.392 26.13 105.108 24.8802 105.095 23.4827V23.0437H116.939C118.386 23.0437 119.514 22.8376 120.291 22.4345C120.983 22.0761 121.316 21.2608 121.316 19.9483C121.316 18.4388 120.926 16.9292 120.149 15.4644C119.376 14.0085 118.2 12.8036 116.646 11.8808C115.088 10.958 113.188 10.4877 110.999 10.4877C109.308 10.4877 107.75 10.7654 106.369 11.3074C104.997 11.8494 103.83 12.6333 102.893 13.6412C101.956 14.6536 101.233 15.8854 100.74 17.3054C100.247 18.7344 99.9941 20.3112 99.9941 21.991C99.9941 25.5432 101.002 28.3832 102.991 30.4393C104.975 32.4909 107.812 33.5346 111.421 33.5346C113.006 33.5346 114.422 33.3241 115.629 32.912C116.841 32.4999 117.854 31.9758 118.644 31.3576C119.43 30.7439 120.024 30.0944 120.406 29.4359Z" fill="white"/>
<path d="M84.3536 16.3507C84.247 15.5758 84.0118 14.8411 83.6522 14.1737C83.0884 13.0135 82.236 12.1131 81.1084 11.486C79.9675 10.8499 78.649 10.5319 77.1929 10.5319C75.7368 10.5319 74.3429 10.8365 73.1931 11.4412C72.1632 11.9787 71.1954 12.8074 70.3031 13.9049C70.2498 13.9721 70.2188 14.0572 70.2188 14.1468V16.1671C70.2188 16.5209 70.6716 16.6822 70.8758 16.3955C71.2087 15.9431 71.5994 15.5489 72.0478 15.2174C72.9756 14.541 74.0144 14.2006 75.142 14.2006C76.9044 14.2006 78.1074 14.7963 78.7201 15.97C79.2927 17.0674 79.5724 18.586 79.5724 20.6107V30.3939C79.5724 31.4287 79.8077 32.2215 80.2783 32.7501C80.74 33.2742 81.326 33.5295 82.0718 33.5295C82.8176 33.5295 83.3814 33.2832 83.8342 32.7725C84.2914 32.2574 84.5267 31.4555 84.5267 30.3939V19.4684C84.5267 18.2052 84.469 17.1525 84.358 16.3462" fill="white"/>
<path d="M167.823 14.6218V22.5147H166.873L163.494 16.5435V22.5147H162.518V14.6218H163.445L166.846 20.6512V14.6218H167.823Z" fill="white"/>
<path d="M175.831 14.6225V19.2991C175.831 21.6329 174.73 22.605 172.998 22.605C171.267 22.605 170.166 21.6329 170.166 19.3081V14.618H171.143V19.3081C171.143 21.0371 171.8 21.7091 173.003 21.7091C174.206 21.7091 174.863 21.0327 174.863 19.3081V14.618H175.839L175.831 14.6225Z" fill="white"/>
<path d="M183.286 14.6218V15.5132H180.907V22.5147H179.93V15.5132H177.551V14.6218H183.286Z" fill="white"/>
<path d="M189.451 22.5147L187.818 19.1864H185.971V22.5147H184.994V14.6218H187.489C189.291 14.6218 190.335 15.3789 190.335 16.9108C190.335 18.0218 189.789 18.7161 188.794 19.0162L190.539 22.5147H189.451ZM187.489 18.295C188.816 18.295 189.358 17.8829 189.358 16.9108C189.358 15.9388 188.812 15.5132 187.489 15.5132H185.971V18.295H187.489Z" fill="white"/>
<path d="M193.42 22.5147H192.443V14.6218H193.42V22.5147Z" fill="white"/>
<path d="M201.129 14.6218V22.5147H200.179L196.801 16.5435V22.5147H195.824V14.6218H196.752L200.153 20.6512V14.6218H201.129Z" fill="white"/>
<path d="M203.494 22.5147V14.6218H205.989C207.725 14.6218 208.821 15.6073 208.821 18.1561V18.9804C208.821 21.5292 207.72 22.5147 205.989 22.5147H203.494ZM207.845 18.9804V18.1561C207.845 16.1986 207.188 15.5132 205.985 15.5132H204.466V21.6233H205.985C207.188 21.6233 207.845 20.9379 207.845 18.9804Z" fill="white"/>
<path d="M213.418 22.6088C211.682 22.6088 210.586 21.5561 210.586 19.0073V18.1382C210.586 15.5894 211.687 14.5367 213.418 14.5367C215.15 14.5367 216.251 15.5894 216.251 18.1382V19.0073C216.251 21.5561 215.15 22.6088 213.418 22.6088ZM211.558 19.0028C211.558 20.9603 212.215 21.7129 213.418 21.7129C214.621 21.7129 215.278 20.9558 215.278 19.0028V18.1338C215.278 16.1762 214.621 15.4237 213.418 15.4237C212.215 15.4237 211.558 16.1807 211.558 18.1338V19.0028Z" fill="white"/>
<path d="M225.933 16.3733C225.516 15.8224 225.059 15.4237 224.073 15.4237C223.168 15.4237 222.555 15.8358 222.555 16.66C222.555 17.5962 223.256 17.9188 224.402 18.1248C225.911 18.3891 226.83 18.9356 226.83 20.4004C226.83 21.4307 226.151 22.6088 224.202 22.6088C222.932 22.6088 222.004 22.1743 221.414 21.3142L222.218 20.7543C222.728 21.359 223.181 21.7174 224.202 21.7174C225.485 21.7174 225.858 21.1216 225.858 20.4497C225.858 19.7061 225.485 19.2044 224.011 18.9759C222.537 18.7475 221.587 18.0397 221.587 16.6645C221.587 15.5312 222.324 14.5367 224.113 14.5367C225.361 14.5367 226.142 14.9578 226.697 15.8313L225.938 16.3823L225.933 16.3733Z" fill="white"/>
<path d="M233.492 14.6218V15.5132H229.75V17.9859H233.15V18.8773H229.75V21.6233H233.492V22.5147H228.777V14.6218H233.492Z" fill="white"/>
<path d="M241.063 14.6225V19.2991C241.063 21.6329 239.962 22.605 238.231 22.605C236.499 22.605 235.398 21.6329 235.398 19.3081V14.618H236.375V19.3081C236.375 21.0371 237.032 21.7091 238.235 21.7091C239.438 21.7091 240.095 21.0327 240.095 19.3081V14.618H241.072L241.063 14.6225Z" fill="white"/>
<path d="M166.428 30.7932C166.281 30.0496 165.851 29.5927 165.078 29.5927C164.159 29.5927 163.671 30.2198 163.671 31.7294V32.8493C163.671 34.3141 164.159 34.986 165.078 34.986C165.873 34.986 166.259 34.5873 166.428 33.7855H167.937C167.675 35.5593 166.69 36.3388 165.078 36.3388C163.32 36.3388 162.086 35.2637 162.086 32.8493V31.7294C162.086 29.2925 163.32 28.2399 165.078 28.2399C166.632 28.2399 167.684 29.0641 167.946 30.7932H166.428Z" fill="white"/>
<path d="M172.523 36.3434C170.765 36.3434 169.531 35.2683 169.531 32.8539V31.734C169.531 29.2972 170.765 28.2445 172.523 28.2445C174.281 28.2445 175.529 29.2972 175.529 31.734V32.8539C175.529 35.2683 174.295 36.3434 172.523 36.3434ZM171.116 32.8539C171.116 34.3635 171.604 34.9906 172.523 34.9906C173.442 34.9906 173.94 34.3635 173.94 32.8539V31.734C173.94 30.2244 173.442 29.5973 172.523 29.5973C171.604 29.5973 171.116 30.2244 171.116 31.734V32.8539Z" fill="white"/>
<path d="M183.32 28.347V36.2399H181.993L178.943 31.3573V36.2399H177.434V28.347H178.748L181.806 33.3014V28.347H183.316H183.32Z" fill="white"/>
<path d="M187.054 31.4827H189.762V28.347H191.351V36.2399H189.762V32.831H187.054V36.2399H185.465V28.347H187.054V31.4827Z" fill="white"/>
<path d="M198.369 28.347V29.7088H195.079V31.4827H198.027V32.831H195.079V34.8916H198.369V36.2399H193.494V28.347H198.369Z" fill="white"/>
<path d="M204.18 30.7932C204.033 30.0496 203.602 29.5927 202.83 29.5927C201.911 29.5927 201.423 30.2198 201.423 31.7294V32.8493C201.423 34.3141 201.911 34.986 202.83 34.986C203.625 34.986 204.011 34.5873 204.18 33.7855H205.689C205.427 35.5593 204.441 36.3388 202.83 36.3388C201.072 36.3388 199.838 35.2637 199.838 32.8493V31.7294C199.838 29.2925 201.072 28.2399 202.83 28.2399C204.384 28.2399 205.436 29.0641 205.698 30.7932H204.18Z" fill="white"/>
<path d="M209.058 36.2399H207.469V28.347H209.058V36.2399Z" fill="white"/>
<path d="M214.919 32.6473L217.094 28.347H218.604V36.2399H217.085V31.3438L215.385 34.8199H214.422L212.744 31.3751V36.2354H211.234V28.3425H212.722L214.919 32.6428V32.6473Z" fill="white"/>
<path d="M225.622 28.347V29.7088H222.333V31.4827H225.281V32.831H222.333V34.8916H225.622V36.2399H220.748V28.347H225.622Z" fill="white"/>
<path d="M233.33 28.347V36.2399H232.003L228.953 31.3573V36.2399H227.443V28.347H228.757L231.816 33.3014V28.347H233.325H233.33Z" fill="white"/>
<path d="M240.827 28.347V29.7088H238.674V36.2399H237.085V29.7088H234.932V28.347H240.827Z" fill="white"/>
<path d="M245.129 36.3434C243.371 36.3434 242.137 35.2683 242.137 32.8539V31.734C242.137 29.2972 243.371 28.2445 245.129 28.2445C246.887 28.2445 248.134 29.2972 248.134 31.734V32.8539C248.134 35.2683 246.9 36.3434 245.129 36.3434ZM243.722 32.8539C243.722 34.3635 244.21 34.9906 245.129 34.9906C246.048 34.9906 246.545 34.3635 246.545 32.8539V31.734C246.545 30.2244 246.048 29.5973 245.129 29.5973C244.21 29.5973 243.722 30.2244 243.722 31.734V32.8539Z" fill="white"/>
<path d="M251.501 36.2402H249.734V34.4574H251.501V36.2402Z" fill="white"/>
<path d="M140.771 0.000732422H140.766C139.999 0.000732422 139.377 0.628464 139.377 1.40281V48.5987C139.377 49.373 139.999 50.0007 140.766 50.0007H140.771C141.538 50.0007 142.16 49.373 142.16 48.5987V1.40281C142.16 0.628464 141.538 0.000732422 140.771 0.000732422Z" fill="white"/>
</svg>
